<mxfile host="app.diagrams.net" agent="Mozilla/5.0 (Windows NT 10.0; Win64; x64) AppleWebKit/537.36 (KHTML, like Gecko) Chrome/141.0.0.0 Safari/537.36 Edg/141.0.0.0" version="28.2.5">
  <diagram name="Página-1" id="MpQslbSbHttElLq6GgqF">
    <mxGraphModel dx="2245" dy="786" grid="1" gridSize="10" guides="1" tooltips="1" connect="1" arrows="1" fold="1" page="1" pageScale="1" pageWidth="827" pageHeight="1169" background="light-dark(#FFFFFF,#393939)" math="0" shadow="0">
      <root>
        <mxCell id="0" />
        <mxCell id="1" parent="0" />
        <mxCell id="rPZIG8-aBQZazB7C_sdG-7" value="" style="edgeStyle=orthogonalEdgeStyle;rounded=0;orthogonalLoop=1;jettySize=auto;html=1;" parent="1" source="2eC5LnO9QVNt6_FU8Hfr-1" target="2eC5LnO9QVNt6_FU8Hfr-21" edge="1">
          <mxGeometry relative="1" as="geometry" />
        </mxCell>
        <mxCell id="2eC5LnO9QVNt6_FU8Hfr-1" value="Início" style="ellipse;whiteSpace=wrap;html=1;fillColor=light-dark(#A20025,#A40000);strokeColor=default;fontColor=#ffffff;" parent="1" vertex="1">
          <mxGeometry x="354" y="20" width="120" height="80" as="geometry" />
        </mxCell>
        <mxCell id="rPZIG8-aBQZazB7C_sdG-9" style="edgeStyle=orthogonalEdgeStyle;rounded=0;orthogonalLoop=1;jettySize=auto;html=1;entryX=0.5;entryY=0;entryDx=0;entryDy=0;" parent="1" source="2eC5LnO9QVNt6_FU8Hfr-2" target="2eC5LnO9QVNt6_FU8Hfr-22" edge="1">
          <mxGeometry relative="1" as="geometry" />
        </mxCell>
        <mxCell id="2eC5LnO9QVNt6_FU8Hfr-2" value="Ler N" style="shape=parallelogram;perimeter=parallelogramPerimeter;whiteSpace=wrap;html=1;fixedSize=1;fillColor=#1ba1e2;strokeColor=default;fontColor=#ffffff;" parent="1" vertex="1">
          <mxGeometry x="354" y="240" width="120" height="60" as="geometry" />
        </mxCell>
        <mxCell id="rPZIG8-aBQZazB7C_sdG-8" value="" style="edgeStyle=orthogonalEdgeStyle;rounded=0;orthogonalLoop=1;jettySize=auto;html=1;" parent="1" source="2eC5LnO9QVNt6_FU8Hfr-21" target="2eC5LnO9QVNt6_FU8Hfr-2" edge="1">
          <mxGeometry relative="1" as="geometry" />
        </mxCell>
        <mxCell id="2eC5LnO9QVNt6_FU8Hfr-21" value="Contador = 0" style="rounded=0;whiteSpace=wrap;html=1;fillColor=#008a00;fontColor=#ffffff;strokeColor=default;" parent="1" vertex="1">
          <mxGeometry x="354" y="140" width="120" height="60" as="geometry" />
        </mxCell>
        <mxCell id="rPZIG8-aBQZazB7C_sdG-10" value="" style="edgeStyle=orthogonalEdgeStyle;rounded=0;orthogonalLoop=1;jettySize=auto;html=1;" parent="1" source="2eC5LnO9QVNt6_FU8Hfr-22" target="2eC5LnO9QVNt6_FU8Hfr-23" edge="1">
          <mxGeometry relative="1" as="geometry" />
        </mxCell>
        <mxCell id="rPZIG8-aBQZazB7C_sdG-11" value="Não" style="edgeLabel;html=1;align=center;verticalAlign=middle;resizable=0;points=[];" parent="rPZIG8-aBQZazB7C_sdG-10" vertex="1" connectable="0">
          <mxGeometry x="-0.0833" relative="1" as="geometry">
            <mxPoint as="offset" />
          </mxGeometry>
        </mxCell>
        <mxCell id="in6-ptqc-Zddgc0GGJ_o-2" value="" style="edgeStyle=orthogonalEdgeStyle;rounded=0;orthogonalLoop=1;jettySize=auto;html=1;" edge="1" parent="1" source="2eC5LnO9QVNt6_FU8Hfr-22" target="in6-ptqc-Zddgc0GGJ_o-1">
          <mxGeometry relative="1" as="geometry" />
        </mxCell>
        <mxCell id="in6-ptqc-Zddgc0GGJ_o-3" value="Sim" style="edgeLabel;html=1;align=center;verticalAlign=middle;resizable=0;points=[];" vertex="1" connectable="0" parent="in6-ptqc-Zddgc0GGJ_o-2">
          <mxGeometry x="-0.1667" y="-4" relative="1" as="geometry">
            <mxPoint as="offset" />
          </mxGeometry>
        </mxCell>
        <mxCell id="2eC5LnO9QVNt6_FU8Hfr-22" value="N == 0&lt;div&gt;OU&lt;/div&gt;&lt;div&gt;N == 1&lt;/div&gt;" style="rhombus;whiteSpace=wrap;html=1;fillColor=#e3c800;fontColor=#000000;strokeColor=default;" parent="1" vertex="1">
          <mxGeometry x="130" y="325" width="146" height="90" as="geometry" />
        </mxCell>
        <mxCell id="rPZIG8-aBQZazB7C_sdG-12" value="" style="edgeStyle=orthogonalEdgeStyle;rounded=0;orthogonalLoop=1;jettySize=auto;html=1;" parent="1" source="2eC5LnO9QVNt6_FU8Hfr-23" target="rPZIG8-aBQZazB7C_sdG-2" edge="1">
          <mxGeometry relative="1" as="geometry" />
        </mxCell>
        <mxCell id="2eC5LnO9QVNt6_FU8Hfr-23" value="Div = N" style="rounded=0;whiteSpace=wrap;html=1;strokeColor=default;fillColor=#008a00;fontColor=#ffffff;" parent="1" vertex="1">
          <mxGeometry x="354" y="340" width="120" height="60" as="geometry" />
        </mxCell>
        <mxCell id="rPZIG8-aBQZazB7C_sdG-13" value="" style="edgeStyle=orthogonalEdgeStyle;rounded=0;orthogonalLoop=1;jettySize=auto;html=1;" parent="1" source="rPZIG8-aBQZazB7C_sdG-2" target="rPZIG8-aBQZazB7C_sdG-5" edge="1">
          <mxGeometry relative="1" as="geometry" />
        </mxCell>
        <mxCell id="rPZIG8-aBQZazB7C_sdG-16" value="Não" style="edgeLabel;html=1;align=center;verticalAlign=middle;resizable=0;points=[];" parent="rPZIG8-aBQZazB7C_sdG-13" vertex="1" connectable="0">
          <mxGeometry x="0.2" relative="1" as="geometry">
            <mxPoint as="offset" />
          </mxGeometry>
        </mxCell>
        <mxCell id="rPZIG8-aBQZazB7C_sdG-14" value="" style="edgeStyle=orthogonalEdgeStyle;rounded=0;orthogonalLoop=1;jettySize=auto;html=1;" parent="1" source="rPZIG8-aBQZazB7C_sdG-2" target="rPZIG8-aBQZazB7C_sdG-3" edge="1">
          <mxGeometry relative="1" as="geometry" />
        </mxCell>
        <mxCell id="rPZIG8-aBQZazB7C_sdG-15" value="Sim" style="edgeLabel;html=1;align=center;verticalAlign=middle;resizable=0;points=[];" parent="rPZIG8-aBQZazB7C_sdG-14" vertex="1" connectable="0">
          <mxGeometry x="-0.1163" relative="1" as="geometry">
            <mxPoint as="offset" />
          </mxGeometry>
        </mxCell>
        <mxCell id="rPZIG8-aBQZazB7C_sdG-2" value="N MOD Div == 0" style="rhombus;whiteSpace=wrap;html=1;fillColor=#e3c800;fontColor=#000000;strokeColor=default;" parent="1" vertex="1">
          <mxGeometry x="341" y="440" width="146" height="90" as="geometry" />
        </mxCell>
        <mxCell id="rPZIG8-aBQZazB7C_sdG-17" style="edgeStyle=orthogonalEdgeStyle;rounded=0;orthogonalLoop=1;jettySize=auto;html=1;entryX=1;entryY=0.5;entryDx=0;entryDy=0;" parent="1" source="rPZIG8-aBQZazB7C_sdG-3" target="rPZIG8-aBQZazB7C_sdG-5" edge="1">
          <mxGeometry relative="1" as="geometry">
            <Array as="points">
              <mxPoint x="590" y="590" />
            </Array>
          </mxGeometry>
        </mxCell>
        <mxCell id="rPZIG8-aBQZazB7C_sdG-3" value="Contador =&lt;div&gt;Contador + 1&lt;/div&gt;" style="rounded=0;whiteSpace=wrap;html=1;fillColor=#008a00;fontColor=#ffffff;strokeColor=default;" parent="1" vertex="1">
          <mxGeometry x="530" y="455" width="120" height="60" as="geometry" />
        </mxCell>
        <mxCell id="rPZIG8-aBQZazB7C_sdG-19" value="" style="edgeStyle=orthogonalEdgeStyle;rounded=0;orthogonalLoop=1;jettySize=auto;html=1;" parent="1" source="rPZIG8-aBQZazB7C_sdG-4" target="rPZIG8-aBQZazB7C_sdG-6" edge="1">
          <mxGeometry relative="1" as="geometry" />
        </mxCell>
        <mxCell id="rPZIG8-aBQZazB7C_sdG-20" value="Sim" style="edgeLabel;html=1;align=center;verticalAlign=middle;resizable=0;points=[];" parent="rPZIG8-aBQZazB7C_sdG-19" vertex="1" connectable="0">
          <mxGeometry x="-0.72" y="-1" relative="1" as="geometry">
            <mxPoint as="offset" />
          </mxGeometry>
        </mxCell>
        <mxCell id="rPZIG8-aBQZazB7C_sdG-21" style="edgeStyle=orthogonalEdgeStyle;rounded=0;orthogonalLoop=1;jettySize=auto;html=1;entryX=0;entryY=0.5;entryDx=0;entryDy=0;" parent="1" source="rPZIG8-aBQZazB7C_sdG-4" target="rPZIG8-aBQZazB7C_sdG-2" edge="1">
          <mxGeometry relative="1" as="geometry">
            <Array as="points">
              <mxPoint x="321" y="705" />
              <mxPoint x="321" y="485" />
            </Array>
          </mxGeometry>
        </mxCell>
        <mxCell id="rPZIG8-aBQZazB7C_sdG-22" value="Não" style="edgeLabel;html=1;align=center;verticalAlign=middle;resizable=0;points=[];" parent="rPZIG8-aBQZazB7C_sdG-21" vertex="1" connectable="0">
          <mxGeometry x="-0.5154" relative="1" as="geometry">
            <mxPoint as="offset" />
          </mxGeometry>
        </mxCell>
        <mxCell id="rPZIG8-aBQZazB7C_sdG-4" value="Div == 0" style="rhombus;whiteSpace=wrap;html=1;fillColor=#e3c800;fontColor=#000000;strokeColor=default;" parent="1" vertex="1">
          <mxGeometry x="341" y="660" width="146" height="90" as="geometry" />
        </mxCell>
        <mxCell id="rPZIG8-aBQZazB7C_sdG-18" value="" style="edgeStyle=orthogonalEdgeStyle;rounded=0;orthogonalLoop=1;jettySize=auto;html=1;" parent="1" source="rPZIG8-aBQZazB7C_sdG-5" target="rPZIG8-aBQZazB7C_sdG-4" edge="1">
          <mxGeometry relative="1" as="geometry" />
        </mxCell>
        <mxCell id="rPZIG8-aBQZazB7C_sdG-5" value="Div = Div - 1" style="rounded=0;whiteSpace=wrap;html=1;fillColor=#008a00;fontColor=#ffffff;strokeColor=default;" parent="1" vertex="1">
          <mxGeometry x="354" y="560" width="120" height="60" as="geometry" />
        </mxCell>
        <mxCell id="rPZIG8-aBQZazB7C_sdG-25" value="" style="edgeStyle=orthogonalEdgeStyle;rounded=0;orthogonalLoop=1;jettySize=auto;html=1;" parent="1" source="rPZIG8-aBQZazB7C_sdG-6" target="rPZIG8-aBQZazB7C_sdG-23" edge="1">
          <mxGeometry relative="1" as="geometry" />
        </mxCell>
        <mxCell id="rPZIG8-aBQZazB7C_sdG-27" value="Não" style="edgeLabel;html=1;align=center;verticalAlign=middle;resizable=0;points=[];" parent="rPZIG8-aBQZazB7C_sdG-25" vertex="1" connectable="0">
          <mxGeometry x="-0.3103" relative="1" as="geometry">
            <mxPoint as="offset" />
          </mxGeometry>
        </mxCell>
        <mxCell id="rPZIG8-aBQZazB7C_sdG-26" value="" style="edgeStyle=orthogonalEdgeStyle;rounded=0;orthogonalLoop=1;jettySize=auto;html=1;" parent="1" source="rPZIG8-aBQZazB7C_sdG-6" target="rPZIG8-aBQZazB7C_sdG-24" edge="1">
          <mxGeometry relative="1" as="geometry" />
        </mxCell>
        <mxCell id="rPZIG8-aBQZazB7C_sdG-28" value="Sim" style="edgeLabel;html=1;align=center;verticalAlign=middle;resizable=0;points=[];" parent="rPZIG8-aBQZazB7C_sdG-26" vertex="1" connectable="0">
          <mxGeometry x="-0.0794" y="1" relative="1" as="geometry">
            <mxPoint as="offset" />
          </mxGeometry>
        </mxCell>
        <mxCell id="rPZIG8-aBQZazB7C_sdG-6" value="Contador &amp;gt; 2" style="rhombus;whiteSpace=wrap;html=1;fillColor=#e3c800;fontColor=#000000;strokeColor=default;" parent="1" vertex="1">
          <mxGeometry x="341" y="780" width="146" height="90" as="geometry" />
        </mxCell>
        <mxCell id="rPZIG8-aBQZazB7C_sdG-30" style="edgeStyle=orthogonalEdgeStyle;rounded=0;orthogonalLoop=1;jettySize=auto;html=1;entryX=0;entryY=0.5;entryDx=0;entryDy=0;" parent="1" source="rPZIG8-aBQZazB7C_sdG-23" target="rPZIG8-aBQZazB7C_sdG-29" edge="1">
          <mxGeometry relative="1" as="geometry">
            <Array as="points">
              <mxPoint x="200" y="970" />
            </Array>
          </mxGeometry>
        </mxCell>
        <mxCell id="rPZIG8-aBQZazB7C_sdG-23" value="Escrever &quot;O número que introduziu é primo&quot;" style="shape=parallelogram;perimeter=parallelogramPerimeter;whiteSpace=wrap;html=1;fixedSize=1;fillColor=#1ba1e2;fontColor=#ffffff;strokeColor=default;" parent="1" vertex="1">
          <mxGeometry x="113" y="800" width="180" height="50" as="geometry" />
        </mxCell>
        <mxCell id="rPZIG8-aBQZazB7C_sdG-31" style="edgeStyle=orthogonalEdgeStyle;rounded=0;orthogonalLoop=1;jettySize=auto;html=1;entryX=1;entryY=0.5;entryDx=0;entryDy=0;" parent="1" source="rPZIG8-aBQZazB7C_sdG-24" target="rPZIG8-aBQZazB7C_sdG-29" edge="1">
          <mxGeometry relative="1" as="geometry">
            <Array as="points">
              <mxPoint x="630" y="970" />
            </Array>
          </mxGeometry>
        </mxCell>
        <mxCell id="rPZIG8-aBQZazB7C_sdG-24" value="Escrever &quot;O número que introduziu é composto&quot;" style="shape=parallelogram;perimeter=parallelogramPerimeter;whiteSpace=wrap;html=1;fixedSize=1;fillColor=#1ba1e2;fontColor=#ffffff;strokeColor=default;" parent="1" vertex="1">
          <mxGeometry x="540" y="800" width="180" height="50" as="geometry" />
        </mxCell>
        <mxCell id="rPZIG8-aBQZazB7C_sdG-29" value="Fim" style="ellipse;whiteSpace=wrap;html=1;fillColor=#B266FF;strokeColor=light-dark(#000000, #9577a3);" parent="1" vertex="1">
          <mxGeometry x="354" y="930" width="120" height="80" as="geometry" />
        </mxCell>
        <mxCell id="in6-ptqc-Zddgc0GGJ_o-4" style="edgeStyle=orthogonalEdgeStyle;rounded=0;orthogonalLoop=1;jettySize=auto;html=1;" edge="1" parent="1" source="in6-ptqc-Zddgc0GGJ_o-1" target="rPZIG8-aBQZazB7C_sdG-29">
          <mxGeometry relative="1" as="geometry">
            <Array as="points">
              <mxPoint x="-10" y="970" />
            </Array>
          </mxGeometry>
        </mxCell>
        <mxCell id="in6-ptqc-Zddgc0GGJ_o-1" value="Escrever &quot;O número que introduziu é uma coisa esquisita, mas não é primo&quot;" style="shape=parallelogram;perimeter=parallelogramPerimeter;whiteSpace=wrap;html=1;fixedSize=1;fillColor=#1ba1e2;fontColor=#ffffff;strokeColor=default;" vertex="1" parent="1">
          <mxGeometry x="-100" y="345" width="180" height="50" as="geometry" />
        </mxCell>
      </root>
    </mxGraphModel>
  </diagram>
</mxfile>
